<?xml version="1.0" encoding="UTF-8" standalone="no"?>
<svg
   xmlns:dc="http://purl.org/dc/elements/1.1/"
   xmlns:cc="http://creativecommons.org/ns#"
   xmlns:rdf="http://www.w3.org/1999/02/22-rdf-syntax-ns#"
   xmlns:svg="http://www.w3.org/2000/svg"
   xmlns="http://www.w3.org/2000/svg"
   xmlns:sodipodi="http://sodipodi.sourceforge.net/DTD/sodipodi-0.dtd"
   xmlns:inkscape="http://www.inkscape.org/namespaces/inkscape"
   height="454.16504"
   width="685.97125"
   inkscape:version="1.0 (4035a4fb49, 2020-05-01)"
   sodipodi:docname="Components.svg"
   id="svg10"
   xml:space="preserve"
   viewBox="0 0 685.97125 454.16504"
   version="1.1"
   enable-background="new 0 0 1000 1000"><metadata
   id="metadata16"><rdf:RDF><cc:Work
       rdf:about=""><dc:format>image/svg+xml</dc:format><dc:type
         rdf:resource="http://purl.org/dc/dcmitype/StillImage" /><dc:title></dc:title></cc:Work></rdf:RDF></metadata><defs
   id="defs14" /><sodipodi:namedview
   inkscape:document-rotation="0"
   fit-margin-bottom="0"
   fit-margin-right="0"
   fit-margin-left="0"
   fit-margin-top="0"
   inkscape:current-layer="svg10"
   inkscape:window-maximized="1"
   inkscape:window-y="-9"
   inkscape:window-x="-9"
   inkscape:cy="425.50914"
   inkscape:cx="14.058789"
   inkscape:zoom="0.3337544"
   showgrid="true"
   id="namedview12"
   inkscape:window-height="1001"
   inkscape:window-width="1920"
   inkscape:pageshadow="2"
   inkscape:pageopacity="0"
   guidetolerance="10"
   gridtolerance="10"
   objecttolerance="10"
   borderopacity="1"
   bordercolor="#666666"
   pagecolor="#ffffff"><inkscape:grid
     originy="994.99998"
     originx="-3920"
     id="grid1418"
     type="xygrid" /></sodipodi:namedview>

<path
   style="display:inline;fill:none;fill-rule:evenodd;stroke:#000000;stroke-width:1px;stroke-linecap:butt;stroke-linejoin:miter;stroke-opacity:1"
   d="m -6160,-1447.5403 v 90.6796"
   id="path6550"
   inkscape:connector-type="polyline"
   inkscape:connector-curvature="0" /><g
   style="fill:#222de1;fill-opacity:1;stroke:#1313ff;stroke-width:1.33333;stroke-opacity:1"
   transform="matrix(0.75,0,0,0.75,-979.7909,-613.28495)"
   id="g6730"><path
     style="fill:#222de1;fill-opacity:1;stroke:#1313ff;stroke-width:1.33333;stroke-opacity:1"
     inkscape:connector-curvature="0"
     d="m 2005,1366.7 c -17.5,16 -34.8,23.7 -52.9,23.7 h -1.8 c -23.8,-1.4 -40.9,-18.1 -45.7,-23.4 -1.4,-1.4 -35.9,-35 -80.7,-35 h -2.7 c -25.6,0.9 -48.7,13 -68.6,35.8 -15.4,17.6 -31.5,26.5 -48.5,26.5 -28,-0.4 -49.4,-26.3 -49.5,-26.3 l -3,-2.7 c -22.4,-16.7 -60,-34.6 -98.7,-34.6 -32.3,0 -59.5,12.4 -81.1,37 -15.9,18 -33.4,27.4 -51.9,27.9 l 0.1,4.4 -0.3,-4.4 h -1.3 c -24,0 -45,-14.4 -55.4,-23 l -3,-2.5 -19.6,18.8 3.7,3.1 c 13.3,11.5 40.6,30.6 74.3,30.6 h 1.6 c 26.6,-0.6 50.8,-13.1 72,-37.1 16.3,-18.6 36.9,-27.9 61.3,-27.9 38.5,0 74.4,23.9 80.5,28.1 12,13 37,34.9 69.6,35.6 24.9,0 48.9,-12.4 69.4,-35.8 14.9,-17.1 31,-25.8 49.1,-26.6 h 2 c 27.1,0 51.4,18.3 58.2,24 l 2.6,2.2 c 4.4,5 27.9,29.7 63.4,32.1 25.6,1.4 51.3,-9 75.1,-30.6 17.2,-15.7 36.6,-23.7 57.7,-23.7 25.7,0 47.6,12.1 58.4,19.3 l 3.3,2.2 17.4,-20.7 -3.9,-2.8 c -13.2,-9.3 -40.5,-25 -75.5,-25 -27.8,0 -53.2,10.4 -75.6,30.8 z"
     id="path6" /><path
     style="fill:#222de1;fill-opacity:1;stroke:#1313ff;stroke-width:1.33333;stroke-opacity:1"
     inkscape:connector-curvature="0"
     d="m 2086.7,1270.1 c -27.9,0 -53.3,10.4 -75.6,30.7 -17.5,16 -34.8,23.8 -52.9,23.8 h -1.8 c -23.8,-1.4 -40.9,-18.2 -45.7,-23.5 -3.7,-3.6 -37.1,-34.9 -80.7,-34.9 h -2.7 c -25.6,0.9 -48.7,12.9 -68.6,35.7 -15.4,17.6 -31.5,26.5 -48.5,26.5 -28,-0.3 -49.4,-26.2 -49.5,-26.3 l -3,-2.7 c -22.4,-16.7 -60,-34.5 -98.7,-34.5 -32.3,0 -59.5,12.4 -81.1,36.9 -15.9,18 -33.4,27.4 -51.9,27.9 l 0.1,4.1 -0.2,-4 h -1.4 c -24.9,0 -47,-16.1 -55.4,-23 l -3,-2.5 -19.6,18.8 3.7,3.2 c 13.3,11.4 40.6,30.6 74.3,30.6 h 1.7 c 26.6,-0.5 50.8,-13 72,-37.1 16.3,-18.5 36.9,-27.9 61.3,-27.9 38.5,0 74.4,24 80.5,28.1 14.7,15.9 38.7,35 69.6,35.6 24.9,0 48.9,-12.4 69.4,-35.8 14.9,-17.1 31,-25.8 49,-26.5 h 2.1 c 27.1,0 51.4,18.4 58.2,24 l 2.6,2.3 c 4.4,5 28,29.7 63.4,32.1 26,1.4 51.4,-9 75.1,-30.7 17.2,-15.7 36.6,-23.7 57.7,-23.7 25.8,0 47.6,12.1 58.4,19.3 l 3.3,2.2 17.4,-20.7 -3.9,-2.8 c -13.3,-9.6 -40.7,-25.2 -75.6,-25.2 z"
     id="path8" /></g><ellipse
   style="fill:#f8f8f8;fill-opacity:1;fill-rule:evenodd;stroke:#921037;stroke-width:20.1339;stroke-linecap:square;stroke-miterlimit:4;stroke-dasharray:none;stroke-dashoffset:0;stroke-opacity:1;paint-order:fill markers stroke"
   id="path1485-6-3-3-7-4-7-0-4-3-3"
   cx="504.17975"
   cy="144.05783"
   rx="27.943111"
   ry="107.42178"
   transform="matrix(0.98264797,0.18548036,-0.02354097,0.99972287,0,0)" /><ellipse
   style="fill:#f8f8f8;fill-opacity:1;fill-rule:evenodd;stroke:#921037;stroke-width:20.1551;stroke-linecap:square;stroke-miterlimit:4;stroke-dasharray:none;stroke-dashoffset:0;stroke-opacity:1;paint-order:fill markers stroke"
   id="path1485-6-3-3-7-2-6-8-1-0"
   cx="137.86264"
   cy="361.60681"
   rx="27.777639"
   ry="108.28934"
   transform="matrix(0.64795156,-0.76168155,0.86303231,0.50514872,0,0)" /><ellipse
   style="fill:#f8f8f8;fill-opacity:1;fill-rule:evenodd;stroke:#921037;stroke-width:20.1243;stroke-linecap:square;stroke-miterlimit:4;stroke-dasharray:none;stroke-dashoffset:0;stroke-opacity:1;paint-order:fill markers stroke"
   id="path1485-6-3-3-4-6-3-3-7"
   cx="-356.37091"
   cy="525.06927"
   rx="27.688124"
   ry="108.30757"
   transform="matrix(-0.34716045,-0.93780575,0.87194055,-0.48961177,0,0)" /><ellipse
   style="fill:#f8f8f8;fill-opacity:1;fill-rule:evenodd;stroke:#921037;stroke-width:20;stroke-linecap:square;stroke-miterlimit:4;stroke-dasharray:none;stroke-dashoffset:0;stroke-opacity:1;paint-order:fill markers stroke"
   id="path1487-9-9-1-1-6"
   cx="492.05334"
   cy="126.55898"
   rx="25.318239"
   ry="25.045332" /><circle
   r="51.652542"
   cy="159.70448"
   cx="159.59885"
   id="path6732"
   style="fill:#f8f8f8;fill-opacity:1;fill-rule:evenodd;stroke:#030303;stroke-width:20;stroke-linecap:square;stroke-miterlimit:4;stroke-dasharray:none;stroke-dashoffset:0;stroke-opacity:1;paint-order:fill markers stroke" /><path
   inkscape:connector-curvature="0"
   inkscape:connector-type="polyline"
   id="path6751"
   d="m 240.00002,159.99998 h 80"
   style="display:inline;fill:none;fill-rule:evenodd;stroke:#030303;stroke-width:20;stroke-linecap:butt;stroke-linejoin:miter;stroke-miterlimit:4;stroke-dasharray:none;stroke-opacity:1" /><path
   inkscape:connector-curvature="0"
   inkscape:connector-type="polyline"
   id="path6751-9"
   d="M 0,159.99998 H 80.00002"
   style="display:inline;fill:none;fill-rule:evenodd;stroke:#030303;stroke-width:20;stroke-linecap:butt;stroke-linejoin:miter;stroke-miterlimit:4;stroke-dasharray:none;stroke-opacity:1" /><path
   inkscape:connector-curvature="0"
   inkscape:connector-type="polyline"
   id="path6751-9-1"
   d="m 160.00002,319.99998 v -80"
   style="display:inline;fill:none;fill-rule:evenodd;stroke:#030303;stroke-width:20;stroke-linecap:butt;stroke-linejoin:miter;stroke-miterlimit:4;stroke-dasharray:none;stroke-opacity:1" /><path
   inkscape:connector-curvature="0"
   inkscape:connector-type="polyline"
   id="path6751-9-1-1"
   d="M 160.00002,79.99998 V 0"
   style="display:inline;fill:none;fill-rule:evenodd;stroke:#030303;stroke-width:20;stroke-linecap:butt;stroke-linejoin:miter;stroke-miterlimit:4;stroke-dasharray:none;stroke-opacity:1" /><path
   inkscape:transform-center-y="14.237742"
   inkscape:transform-center-x="-22.900847"
   inkscape:connector-curvature="0"
   inkscape:connector-type="polyline"
   id="path6751-0-8"
   d="m 50,269.99998 58.38412,-54.6928"
   style="display:inline;fill:none;fill-rule:evenodd;stroke:#030303;stroke-width:20;stroke-linecap:butt;stroke-linejoin:miter;stroke-miterlimit:4;stroke-dasharray:none;stroke-opacity:1" /><path
   inkscape:transform-center-y="14.237742"
   inkscape:transform-center-x="-22.900847"
   inkscape:connector-curvature="0"
   inkscape:connector-type="polyline"
   id="path6751-0-8-1"
   d="m 220.00002,114.99998 58.3841,-54.6928"
   style="display:inline;fill:none;fill-rule:evenodd;stroke:#030303;stroke-width:20;stroke-linecap:butt;stroke-linejoin:miter;stroke-miterlimit:4;stroke-dasharray:none;stroke-opacity:1" /><path
   inkscape:transform-center-y="22.900847"
   inkscape:transform-center-x="14.237753"
   inkscape:connector-curvature="0"
   inkscape:connector-type="polyline"
   id="path6751-0-8-1-8"
   d="m 50.3073,46.61588 54.69272,58.3841"
   style="display:inline;fill:none;fill-rule:evenodd;stroke:#030303;stroke-width:20;stroke-linecap:butt;stroke-linejoin:miter;stroke-miterlimit:4;stroke-dasharray:none;stroke-opacity:1" /><path
   inkscape:transform-center-y="22.900847"
   inkscape:transform-center-x="14.237753"
   inkscape:connector-curvature="0"
   inkscape:connector-type="polyline"
   id="path6751-0-8-1-8-2"
   d="m 215.30732,216.61588 54.6927,58.3841"
   style="display:inline;fill:none;fill-rule:evenodd;stroke:#030303;stroke-width:20;stroke-linecap:butt;stroke-linejoin:miter;stroke-miterlimit:4;stroke-dasharray:none;stroke-opacity:1" /></svg>
