<?xml version="1.0" encoding="UTF-8" standalone="no"?>
<svg
   xmlns:dc="http://purl.org/dc/elements/1.1/"
   xmlns:cc="http://creativecommons.org/ns#"
   xmlns:rdf="http://www.w3.org/1999/02/22-rdf-syntax-ns#"
   xmlns:svg="http://www.w3.org/2000/svg"
   xmlns="http://www.w3.org/2000/svg"
   xmlns:sodipodi="http://sodipodi.sourceforge.net/DTD/sodipodi-0.dtd"
   xmlns:inkscape="http://www.inkscape.org/namespaces/inkscape"
   height="620.29999"
   width="1232.4945"
   inkscape:version="1.0 (4035a4fb49, 2020-05-01)"
   sodipodi:docname="Controllers.svg"
   id="svg10"
   xml:space="preserve"
   viewBox="0 0 1232.4945 620.29998"
   version="1.1"
   enable-background="new 0 0 1000 1000"><metadata
   id="metadata16"><rdf:RDF><cc:Work
       rdf:about=""><dc:format>image/svg+xml</dc:format><dc:type
         rdf:resource="http://purl.org/dc/dcmitype/StillImage" /><dc:title></dc:title></cc:Work></rdf:RDF></metadata><defs
   id="defs14" /><sodipodi:namedview
   inkscape:document-rotation="0"
   fit-margin-bottom="0"
   fit-margin-right="0"
   fit-margin-left="0"
   fit-margin-top="0"
   inkscape:current-layer="svg10"
   inkscape:window-maximized="1"
   inkscape:window-y="-9"
   inkscape:window-x="-9"
   inkscape:cy="3462.002"
   inkscape:cx="4035.7592"
   inkscape:zoom="0.0834386"
   showgrid="true"
   id="namedview12"
   inkscape:window-height="1001"
   inkscape:window-width="1920"
   inkscape:pageshadow="2"
   inkscape:pageopacity="0"
   guidetolerance="10"
   gridtolerance="10"
   objecttolerance="10"
   borderopacity="1"
   bordercolor="#666666"
   pagecolor="#ffffff"><inkscape:grid
     originy="1116.6"
     originx="-3642.8341"
     id="grid1418"
     type="xygrid" /></sodipodi:namedview>

<path
   style="display:inline;fill:none;fill-rule:evenodd;stroke:#000000;stroke-width:1px;stroke-linecap:butt;stroke-linejoin:miter;stroke-opacity:1"
   d="m -5882.8342,-1325.9403 v 90.6796"
   id="path6550"
   inkscape:connector-type="polyline"
   inkscape:connector-curvature="0" /><path
   id="path6"
   d="m 998.53448,535.44999 c -26.25,24 -52.2,35.55 -79.35,35.55 h -2.7 c -35.7,-2.1 -61.35,-27.15 -68.55,-35.1 -2.1,-2.1 -53.85,-52.5 -121.05,-52.5 h -4.05 c -38.4,1.35 -73.05,19.5 -102.9,53.7 -23.1,26.4 -47.25,39.75 -72.75,39.75 -42,-0.6 -74.1,-39.45 -74.25,-39.45 l -4.5,-4.05 c -33.6,-25.05 -90,-51.9 -148.05,-51.9 -48.45,0 -89.25,18.6 -121.65,55.5 -23.85,27 -50.1,41.1 -77.85,41.85 l 0.15,6.6 -0.45,-6.6 h -1.95 c -36.000005,0 -67.500005,-21.6 -83.100005,-34.5 l -4.5,-3.75 -29.3999995,28.2 5.55,4.65 c 19.9499995,17.25 60.8999995,45.9 111.4500045,45.9 h 2.4 c 39.9,-0.9 76.2,-19.65 108,-55.65 24.45,-27.9 55.35,-41.85 91.95,-41.85 57.75,0 111.6,35.85 120.75,42.15 18,19.5 55.5,52.35 104.4,53.4 37.35,0 73.35,-18.6 104.1,-53.7 22.35,-25.65 46.5,-38.7 73.65,-39.9 h 3 c 40.65,0 77.1,27.45 87.3,36 l 3.9,3.3 c 6.6,7.5 41.85,44.55 95.1,48.15 38.4,2.1 76.95,-13.5 112.65002,-45.9 25.8,-23.55 54.9,-35.55 86.55,-35.55 38.55,0 71.4,18.15 87.6,28.95 l 4.95,3.3 26.1,-31.05 -5.85,-4.2 c -19.8,-13.95 -60.75,-37.5 -113.25,-37.5 -41.7,0 -79.8,15.6 -113.40002,46.2 z"
   inkscape:connector-curvature="0"
   style="fill:#222de1;fill-opacity:1;stroke:#1313ff;stroke-width:1.99999;stroke-opacity:1" /><path
   id="path8"
   d="m 1111.7845,8.799995 c -41.85,0 -79.95,15.6 -113.40002,46.05 -26.25,23.999999 -52.2,35.699999 -79.35,35.699999 h -2.7 c -35.7,-2.1 -61.35,-27.3 -68.55,-35.25 -5.55,-5.399999 -55.65,-52.349999 -121.05,-52.349999 h -4.05 c -38.4,1.35 -73.05,19.35 -102.9,53.549999 -23.1,26.4 -47.25,39.75 -72.75,39.75 -42,-0.45 -74.1,-39.3 -74.25,-39.45 l -4.5,-4.049999 c -33.6,-25.05 -90,-51.75000001 -148.05,-51.75000001 -48.45,0 -89.25,18.60000001 -121.65,55.34999901 -23.85,27 -50.1,41.1 -77.85,41.85 l 0.15,6.149996 -0.3,-5.999996 h -2.1 c -37.350005,0 -70.500005,-24.15 -83.100005,-34.5 l -4.5,-3.75 -29.3999995,28.2 5.55,4.8 C 26.984475,110.19999 67.934475,138.99999 118.48448,138.99999 h 2.55 c 39.9,-0.75 76.2,-19.5 108,-55.649996 24.45,-27.75 55.35,-41.849999 91.95,-41.849999 57.75,0 111.6,35.999999 120.75,42.149999 22.05,23.849996 58.05,52.499996 104.4,53.399996 37.35,0 73.35,-18.6 104.1,-53.699996 22.35,-25.65 46.5,-38.699999 73.5,-39.749999 h 3.15 c 40.65,0 77.1,27.599999 87.3,35.999999 l 3.9,3.45 c 6.6,7.5 42,44.549996 95.1,48.149996 39,2.1 77.1,-13.5 112.65002,-46.049996 25.8,-23.55 54.9,-35.549999 86.55,-35.549999 38.7,0 71.4,18.149999 87.6,28.949999 l 4.95,3.3 26.1,-31.049999 -5.85,-4.2 c -19.95,-14.4 -61.05,-37.8 -113.4,-37.8 z"
   inkscape:connector-curvature="0"
   style="fill:#222de1;fill-opacity:1;stroke:#1313ff;stroke-width:1.99999;stroke-opacity:1" /></svg>
