<?xml version="1.0" encoding="UTF-8" standalone="no"?>
<svg
   xmlns:dc="http://purl.org/dc/elements/1.1/"
   xmlns:cc="http://creativecommons.org/ns#"
   xmlns:rdf="http://www.w3.org/1999/02/22-rdf-syntax-ns#"
   xmlns:svg="http://www.w3.org/2000/svg"
   xmlns="http://www.w3.org/2000/svg"
   xmlns:sodipodi="http://sodipodi.sourceforge.net/DTD/sodipodi-0.dtd"
   xmlns:inkscape="http://www.inkscape.org/namespaces/inkscape"
   enable-background="new 0 0 1000 1000"
   version="1.1"
   viewBox="0 0 1e3 1e3"
   xml:space="preserve"
   id="svg10"
   sodipodi:docname="variabilityController.svg"
   inkscape:version="0.92.4 (5da689c313, 2019-01-14)"><metadata
   id="metadata16"><rdf:RDF><cc:Work
       rdf:about=""><dc:format>image/svg+xml</dc:format><dc:type
         rdf:resource="http://purl.org/dc/dcmitype/StillImage" /><dc:title></dc:title></cc:Work></rdf:RDF></metadata><defs
   id="defs14" /><sodipodi:namedview
   pagecolor="#ffffff"
   bordercolor="#666666"
   borderopacity="1"
   objecttolerance="10"
   gridtolerance="10"
   guidetolerance="10"
   inkscape:pageopacity="0"
   inkscape:pageshadow="2"
   inkscape:window-width="1920"
   inkscape:window-height="1001"
   id="namedview12"
   showgrid="true"
   inkscape:zoom="0.236"
   inkscape:cx="500"
   inkscape:cy="500"
   inkscape:window-x="-9"
   inkscape:window-y="-9"
   inkscape:window-maximized="1"
   inkscape:current-layer="svg10"><inkscape:grid
     type="xygrid"
     id="grid1418" /></sodipodi:namedview>

<polygon
   points="393.1 445.5 393.1 445.4 393.1 445.6"
   id="polygon2" /><path
   style="fill:none;fill-rule:evenodd;stroke:#f0195a;stroke-width:20;stroke-linecap:butt;stroke-linejoin:miter;stroke-miterlimit:4;stroke-dasharray:none;stroke-opacity:1"
   d="M 0,800 H 1000"
   id="path1420"
   inkscape:connector-type="polyline"
   inkscape:connector-curvature="0" /><path
   style="fill:none;fill-rule:evenodd;stroke:#000000;stroke-width:20;stroke-linecap:butt;stroke-linejoin:miter;stroke-miterlimit:4;stroke-dasharray:none;stroke-opacity:1"
   d="m 480,280 v 80"
   id="path1422"
   inkscape:connector-type="polyline"
   inkscape:connector-curvature="0" /><path
   style="fill:none;fill-rule:evenodd;stroke:#000000;stroke-width:20;stroke-linecap:butt;stroke-linejoin:miter;stroke-miterlimit:4;stroke-dasharray:none;stroke-opacity:1"
   d="m 440,600 h 80"
   id="path1426"
   inkscape:connector-type="polyline"
   inkscape:connector-curvature="0" /><path
   style="fill:none;stroke:#ed280b;stroke-width:20;stroke-linecap:butt;stroke-linejoin:miter;stroke-miterlimit:4;stroke-dasharray:none;stroke-opacity:1"
   d="m 1000,120 c -11.91751,0.31143 -17.67217,15.54834 -26.48097,21.18645 -6.43179,4.11661 -9.19272,2.64533 -13.24053,8.47457 -1.82476,2.62786 -1.67633,6.72267 -4.4135,8.47458 -2.44817,1.56695 -6.03565,-0.8933 -8.827,0 -8.78264,2.81066 -2.05963,3.9548 -4.4135,8.47457 -4.06265,7.80091 -9.17784,0.67367 -13.24049,8.47458 -3.0439,5.84473 5.34499,3.79014 -4.41351,8.47458 -1.31585,0.63165 -3.37322,-0.99874 -4.4135,0 -2.08054,1.99747 2.08055,6.4771 0,8.47457 -1.04027,0.99874 -3.09764,-0.63165 -4.4135,0 -1.8609,0.8933 -2.94233,2.82486 -4.4135,4.23729 -2.39245,2.29693 -4.49763,6.31554 -8.82698,4.23729 -18.36793,-8.81729 4.71817,0.29252 -4.4135,-8.47458 -1.04028,-0.99874 -3.37323,0.99874 -4.41351,0 -1.04027,-0.99874 0.65793,-2.97397 0,-4.23729 -0.93044,-1.78659 -3.48305,-2.45069 -4.4135,-4.23728 -0.65792,-1.26332 1.04028,-3.23855 0,-4.23729 -1.04027,-0.99874 -3.37323,0.99874 -4.41349,0 -1.04027,-0.99874 0.65792,-2.97397 0,-4.23729 -0.93045,-1.7866 -2.94233,-2.82486 -4.4135,-4.23729 -1.47117,-1.41243 -2.5526,-3.34399 -4.4135,-4.23729 -1.74992,-0.84002 -12.33822,0.86626 -13.24051,0 -1.04026,-0.99873 1.04028,-3.23855 0,-4.23728 -1.04026,-0.99874 -2.94232,0 -4.41349,0 -1.47116,0 -2.94233,0 -4.4135,0 -7.35583,0 -14.71167,0 -22.0675,0 -1.47116,0 -2.94233,0 -4.4135,0 -1.47116,0 -3.09764,0.63165 -4.4135,0 -1.8609,-0.8933 -2.5526,-3.34399 -4.4135,-4.23729 -1.14111,-0.54778 -23.3527,0 -26.481,0 -1.47116,0 -3.37323,0.99874 -4.41349,0 -2.08055,-1.99748 2.08054,-6.4771 0,-8.47458 -1.04027,-0.99874 -3.37323,0.99874 -4.4135,0 -1.04028,-0.99874 0.65793,-2.97397 0,-4.23729 -0.93045,-1.78659 -3.48305,-2.45069 -4.4135,-4.23728 -0.65793,-1.26332 1.04027,-3.23855 0,-4.23729 -2.08055,-1.99748 -6.1953,1.26331 -8.82701,0 -1.86088,-0.8933 -2.5526,-3.34399 -4.41349,-4.23729 -1.3432,-0.64478 -11.25285,0 -13.2405,0 -1.47117,0 -2.94234,0 -4.4135,0 -1.47117,0 -3.37324,0.99874 -4.41352,0 -1.04026,-0.99874 1.04028,-3.23855 0,-4.23729 -1.04026,-0.99874 -2.94231,0 -4.41349,0 -1.47116,0 -2.94233,0 -4.4135,0 -16.18283,0 -32.36567,0 -48.54849,0 -1.0704,0 -13.09856,-0.13627 -13.24051,0 -2.08054,1.99748 2.08055,6.4771 0,8.47458 -1.04026,0.99874 -3.37322,-0.99874 -4.41349,0 -1.04027,0.99874 0,2.82486 0,4.23729 0,8.47457 0,16.94915 0,25.42372 0,1.41243 1.04027,3.23855 0,4.23729 -1.04027,0.99874 -3.37323,-0.99874 -4.4135,0 -1.04027,0.99874 0.65793,2.97398 0,4.23729 -0.93045,1.7866 -3.48305,2.45069 -4.4135,4.23729 -0.65793,1.26331 0.65793,2.97397 0,4.23729 -0.93045,1.78659 -2.94234,2.82486 -4.4135,4.23728 -1.47117,1.41243 -2.55261,3.34399 -4.41351,4.23729 -1.31584,0.63166 -3.37322,-0.99874 -4.41349,0 -1.04027,0.99874 1.04027,3.23855 0,4.23729 -1.04027,0.99874 -3.37322,-0.99874 -4.4135,0 -1.04027,0.99874 1.04028,3.23855 0,4.23729 -2.08055,1.99748 -6.1953,-1.26332 -8.827,0 -1.8609,0.8933 -2.55261,3.34399 -4.4135,4.23729 -2.63171,1.26331 -6.19529,-1.26332 -8.827,0 -3.72179,1.78659 -5.1052,6.68798 -8.827,8.47457 -1.14111,0.54778 -23.3527,0 -26.481,0 -1.47116,0 -3.37323,0.99874 -4.4135,0 -1.04026,-0.99873 1.04027,-3.23855 0,-4.23728 -1.20762,-1.15942 -15.25972,1.14933 -17.65399,0 -1.8609,-0.8933 -2.55261,-3.34399 -4.41351,-4.23729 -1.34317,-0.64478 -11.25284,0 -13.24049,0 -11.76934,0 -23.53866,0 -35.308,0 -7.35583,0 -14.71166,0 -22.0675,0 -1.47117,0 -3.37323,-0.99874 -4.4135,0 -9.13169,8.7671 13.95443,-0.34272 -4.41349,8.47457 -2.6317,1.26332 -6.1953,-1.26331 -8.827,0 -1.8609,0.8933 -2.55261,3.34399 -4.41351,4.23729 -1.31584,0.63166 -3.37322,-0.99874 -4.4135,0 -1.04026,0.99874 1.04028,3.23855 0,4.23729 -0.14193,0.13627 -12.1701,0 -13.24049,0 -1.47117,0 -2.94234,0 -4.4135,0 -1.47117,0 -3.37323,-0.99874 -4.4135,0 -1.04027,0.99874 1.04027,3.23855 0,4.23729 -2.08054,1.99747 -6.74646,-1.99748 -8.827,0 -1.04027,0.99874 1.04028,3.23855 0,4.23729 -1.04027,0.99873 -3.37323,-0.99874 -4.4135,0 -1.04027,0.99873 1.04027,3.23855 0,4.23728 -1.04027,0.99874 -3.37323,-0.99873 -4.4135,0 -1.04027,0.99874 0.65793,2.97398 0,4.23729 -3.13701,6.02353 -5.68999,2.45105 -8.827,8.47458 -1.31585,2.52663 2.08054,6.4771 0,8.47457 -1.04027,0.99874 -2.94233,0 -4.41349,0 -1.47117,0 -2.94234,0 -4.41351,0 -11.76933,0 -23.53866,0 -35.308,0 -1.47117,0 -2.94233,0 -4.41349,0 -1.47117,0 -4.4135,1.41243 -4.4135,0 0,-1.41242 4.4135,1.41243 4.4135,0 0,-1.99747 -3.48305,-2.45069 -4.4135,-4.23728 -0.65793,-1.26332 0,-2.82486 0,-4.23729 0,-1.41243 0,-2.82486 0,-4.23729 0,-7.06215 0,-14.12429 0,-21.18644 0,-1.55609 0.1776,-16.77864 0,-16.94915 -0.90228,-0.86626 -11.49059,0.84002 -13.24051,0 -1.86088,-0.8933 -2.5526,-3.34399 -4.4135,-4.23729 -1.31584,-0.63166 -2.94232,0 -4.41349,0 -2.94233,0 -5.88467,0 -8.827,0 -13.24049,0 -26.481,0 -39.72149,0 -1.6208,0 -17.4764,0.17051 -17.65401,0 -1.04026,-0.99874 1.04027,-3.23855 0,-4.23729 -2.08054,-1.99748 -6.74646,1.99748 -8.82699,0 -2.94095,-2.82353 2.94095,-5.65105 0,-8.47458 -1.04028,-0.99873 -3.37323,0.99874 -4.4135,0 -1.04028,-0.99873 1.04027,-3.23854 0,-4.23728 -1.04028,-0.99874 -3.37323,0.99874 -4.41351,0 -0.90227,-0.86626 0.87497,-11.03182 0,-12.71187 -0.93044,-1.7866 -3.48305,-2.45069 -4.4135,-4.23729 -1.31584,-2.52663 1.31586,-5.94794 0,-8.47457 -9.18396,-17.63458 0.3047,4.52981 -8.82699,-4.23729 -1.04027,-0.99874 -1.47117,-4.23729 0,-4.23729 1.47117,0 0,5.64972 0,4.23729 0,-2.82486 1.31585,-5.94795 0,-8.47458 -0.65793,-1.26331 -3.09766,0.63166 -4.4135,0 -1.8609,-0.8933 -3.48305,-2.45069 -4.4135,-4.23728 -3.0439,-5.84474 5.34499,-3.79014 -4.4135,-8.47458 -1.31585,-0.63166 -3.37323,0.99874 -4.41351,0 -1.04026,-0.99874 1.04028,-3.23855 0,-4.23729 -1.04026,-0.99874 -2.94232,0 -4.41349,0 -7.35583,0 -14.71167,0 -22.06749,0 -1.47117,0 -2.94234,0 -4.41351,0 -1.47116,0 -3.37322,-0.99874 -4.4135,0 -1.36661,1.31206 1.36663,19.87438 0,21.18644 -1.04027,0.99874 -3.09764,-0.63166 -4.41349,0 -3.72178,1.7866 -5.10521,6.68798 -8.82699,8.47458 -2.63171,1.26331 -6.74646,-1.99748 -8.827,0 -1.04028,0.99874 1.04027,3.23855 0,4.23729 -2.08055,1.99747 -6.1953,-1.26332 -8.82701,0 -18.36793,8.81729 4.71819,-0.29253 -4.4135,8.47457 -1.04026,0.99874 -2.94232,0 -4.41349,0 -1.47117,0 -2.94233,0 -4.4135,0 -15.83624,0 -19.0687,0 -26.481,0 -1.0704,0 -13.09856,0.13627 -13.24049,0 -1.06204,-1.01962 1.06202,-15.92953 0,-16.94915 -0.20004,-0.19204 -19.986553,0 -22.067516,0 -7.355826,0 -14.711662,0 -22.067498,0 -2.942323,0 -5.884658,0 -8.826992,0 -1.471167,0 -4.413502,1.41243 -4.413502,0 0,-1.41243 5.884669,0 4.413502,0 -2.942334,0 -5.884669,0 -8.827003,0 -1.471167,0 -3.097645,0.63166 -4.413502,0 -1.860887,-0.8933 -2.552604,-3.34399 -4.413491,-4.23729 -1.315856,-0.63166 -3.373228,0.99874 -4.413501,0 -1.040274,-0.99874 1.040273,-3.23855 0,-4.23729 -1.366634,-1.31206 -20.7009524,1.31207 -22.0675131,0 -1.040336,-0.99874 1.0402318,-3.23855 0,-4.23728 -1.040336,-0.99874 -2.942376,0 -4.413512,0 -1.47124,0 -2.94237597,0 -4.4135119,0"
   id="path1401-3"
   inkscape:connector-curvature="0" /><path
   style="display:inline;fill:none;fill-rule:evenodd;stroke:#000000;stroke-width:20;stroke-linecap:butt;stroke-linejoin:miter;stroke-miterlimit:4;stroke-dasharray:none;stroke-opacity:1"
   d="m 440,320 h 80"
   id="path1424"
   inkscape:connector-type="polyline"
   inkscape:connector-curvature="0" /><path
   style="display:inline;fill:none;fill-rule:evenodd;stroke:#000000;stroke-width:20;stroke-linecap:butt;stroke-linejoin:miter;stroke-miterlimit:4;stroke-dasharray:none;stroke-opacity:1"
   d="m 440,661.18644 h 80"
   id="path1428"
   inkscape:connector-type="polyline"
   inkscape:connector-curvature="0" /><path
   style="fill:none;fill-rule:evenodd;stroke:#000000;stroke-width:1px;stroke-linecap:butt;stroke-linejoin:miter;stroke-opacity:1"
   d="M 0,0 V 1000"
   id="path1443"
   inkscape:connector-type="polyline"
   inkscape:connector-curvature="0" /><path
   style="fill:none;stroke:#000000;stroke-width:20;stroke-linecap:butt;stroke-linejoin:miter;stroke-opacity:1;stroke-miterlimit:4;stroke-dasharray:none"
   d="M 0,0 V 1000 H 1000 V 0 Z"
   id="path1449"
   inkscape:connector-curvature="0" /><path
   style="fill:#f8f8f8;stroke:#8b00ff;stroke-width:20;stroke-linecap:butt;stroke-linejoin:miter;stroke-miterlimit:4;stroke-dasharray:none;stroke-opacity:1;fill-opacity:1"
   d="m -1.8644417,576.22096 c 11.9174997,-0.31143 17.6721997,-15.54834 26.4809997,-21.18645 6.4318,-4.11661 9.1927,-2.64533 13.2405,-8.47457 1.8248,-2.62786 1.6763,-6.72267 4.4135,-8.47458 2.4482,-1.56695 6.0356,0.8933 8.827,0 8.7826,-2.81066 2.0596,-3.9548 4.4135,-8.47457 4.0626,-7.80091 9.1778,-0.67367 13.2405,-8.47458 3.0439,-5.84473 -5.345,-3.79014 4.4135,-8.47458 1.3158,-0.63165 3.3732,0.99874 4.4135,0 2.0805,-1.99747 -2.0806,-6.4771 0,-8.47457 1.0403,-0.99874 3.0976,0.63165 4.4135,0 1.8609,-0.8933 2.9423,-2.82486 4.4135,-4.23729 2.3924,-2.29693 4.4976,-6.31554 8.827,-4.23729 18.367902,8.81729 -4.7182,-0.29252 4.4135,8.47458 1.040302,0.99874 3.373202,-0.99874 4.413502,0 1.0403,0.99874 -0.6579,2.97397 0,4.23729 0.9304,1.78659 3.483,2.45069 4.4135,4.23728 0.6579,1.26332 -1.0403,3.23855 0,4.23729 1.0403,0.99874 3.3732,-0.99874 4.4135,0 1.0402,0.99874 -0.6579,2.97397 0,4.23729 0.9304,1.7866 2.9423,2.82486 4.4135,4.23729 1.4711,1.41243 2.5526,3.34399 4.4135,4.23729 1.7499,0.84002 12.3382,-0.86626 13.2405,0 1.0402,0.99873 -1.0403,3.23855 0,4.23728 1.0402,0.99874 2.9423,0 4.4135,0 1.4711,0 2.9423,0 4.4135,0 7.3558,0 14.7116,0 22.0675,0 1.4711,0 2.9423,0 4.4135,0 1.4711,0 3.0976,-0.63165 4.4135,0 1.8609,0.8933 2.5526,3.34399 4.4135,4.23729 1.1411,0.54778 23.3527,0 26.481,0 1.4711,0 3.3732,-0.99874 4.4135,0 2.0805,1.99748 -2.0806,6.4771 0,8.47458 1.0402,0.99874 3.3732,-0.99874 4.4135,0 1.0402,0.99874 -0.658,2.97397 0,4.23729 0.9304,1.78659 3.483,2.45069 4.4135,4.23728 0.6579,1.26332 -1.0403,3.23855 0,4.23729 2.0805,1.99748 6.1953,-1.26331 8.827,0 1.8609,0.8933 2.5526,3.34399 4.4135,4.23729 1.3432,0.64478 11.2528,0 13.2405,0 1.4711,0 2.9423,0 4.4135,0 1.4711,0 3.3732,-0.99874 4.4135,0 1.0402,0.99874 -1.0403,3.23855 0,4.23729 1.0402,0.99874 2.9423,0 4.4135,0 1.4711,0 2.9423,0 4.4135,0 16.1828,0 32.3656,0 48.5485,0 1.0704,0 13.0985,0.13627 13.2405,0 2.0805,-1.99748 -2.0806,-6.4771 0,-8.47458 1.0402,-0.99874 3.3732,0.99874 4.4135,0 1.0402,-0.99874 0,-2.82486 0,-4.23729 0,-8.47457 0,-16.94915 0,-25.42372 0,-1.41243 -1.0403,-3.23855 0,-4.23729 1.0402,-0.99874 3.3732,0.99874 4.4135,0 1.0402,-0.99874 -0.658,-2.97398 0,-4.23729 0.9304,-1.7866 3.483,-2.45069 4.4135,-4.23729 0.6579,-1.26331 -0.658,-2.97397 0,-4.23729 0.9304,-1.78659 2.9423,-2.82486 4.4135,-4.23728 1.4711,-1.41243 2.5526,-3.34399 4.4135,-4.23729 1.3158,-0.63166 3.3732,0.99874 4.4135,0 1.0402,-0.99874 -1.0403,-3.23855 0,-4.23729 1.0402,-0.99874 3.3732,0.99874 4.4135,0 1.0402,-0.99874 -1.0403,-3.23855 0,-4.23729 2.0805,-1.99748 6.1953,1.26332 8.827,0 1.8609,-0.8933 2.5526,-3.34399 4.4135,-4.23729 2.6317,-1.26331 6.1953,1.26332 8.827,0 3.7218,-1.78659 5.1052,-6.68798 8.827,-8.47457 1.1411,-0.54778 23.35267,0 26.48097,0 1.47116,0 3.37323,-0.99874 4.4135,0 1.04026,0.99873 -1.04027,3.23855 0,4.23728 1.20762,1.15942 15.25972,-1.14933 17.65399,0 1.8609,0.8933 2.55261,3.34399 4.41351,4.23729 1.34317,0.64478 11.25284,0 13.24049,0 11.76934,0 23.53866,0 35.308,0 7.35583,0 14.71166,0 22.0675,0 1.47117,0 3.37323,0.99874 4.4135,0 9.13169,-8.7671 -13.95443,0.34272 4.41349,-8.47457 2.6317,-1.26332 6.1953,1.26331 8.827,0 1.8609,-0.8933 2.55261,-3.34399 4.41351,-4.23729 1.31584,-0.63166 3.37322,0.99874 4.4135,0 1.04026,-0.99874 -1.04028,-3.23855 0,-4.23729 0.14193,-0.13627 12.1701,0 13.24049,0 1.47117,0 2.94234,0 4.4135,0 1.47117,0 3.37323,0.99874 4.4135,0 1.04027,-0.99874 -1.04027,-3.23855 0,-4.23729 2.08054,-1.99747 6.74646,1.99748 8.827,0 1.04027,-0.99874 -1.04028,-3.23855 0,-4.23729 1.04027,-0.99873 3.37323,0.99874 4.4135,0 1.04027,-0.99873 -1.04027,-3.23855 0,-4.23728 1.04027,-0.99874 3.37323,0.99873 4.4135,0 1.04027,-0.99874 -0.65793,-2.97398 0,-4.23729 3.13701,-6.02353 5.68999,-2.45105 8.827,-8.47458 1.31585,-2.52663 -2.08054,-6.4771 0,-8.47457 1.04027,-0.99874 2.94233,0 4.41349,0 1.47117,0 2.94234,0 4.41351,0 11.76933,0 23.53866,0 35.308,0 1.47117,0 2.94233,0 4.41349,0 1.47117,0 4.4135,-1.41243 4.4135,0 0,1.41242 -4.4135,-1.41243 -4.4135,0 0,1.99747 3.48305,2.45069 4.4135,4.23728 0.65793,1.26332 0,2.82486 0,4.23729 0,1.41243 0,2.82486 0,4.23729 0,7.06215 0,14.12429 0,21.18644 0,1.55609 -0.1776,16.77864 0,16.94915 0.90228,0.86626 11.49059,-0.84002 13.24051,0 1.86088,0.8933 2.5526,3.34399 4.4135,4.23729 1.31584,0.63166 2.94232,0 4.41349,0 2.94233,0 5.88467,0 8.827,0 13.24049,0 26.481,0 39.72149,0 1.6208,0 17.4764,-0.17051 17.65401,0 1.04026,0.99874 -1.04027,3.23855 0,4.23729 2.08054,1.99748 6.74646,-1.99748 8.82699,0 2.94095,2.82353 -2.94095,5.65105 0,8.47458 1.04028,0.99873 3.37323,-0.99874 4.4135,0 1.04028,0.99873 -1.04027,3.23854 0,4.23728 1.04028,0.99874 3.37323,-0.99874 4.41351,0 0.90227,0.86626 -0.87497,11.03182 0,12.71187 0.93044,1.7866 3.48305,2.45069 4.4135,4.23729 1.31584,2.52663 -1.31586,5.94794 0,8.47457 9.18396,17.63458 -0.3047,-4.52981 8.82699,4.23729 1.04027,0.99874 1.47117,4.23729 0,4.23729 -1.47117,0 0,-5.64972 0,-4.23729 0,2.82486 -1.31585,5.94795 0,8.47458 0.65793,1.26331 3.09766,-0.63166 4.4135,0 1.8609,0.8933 3.48305,2.45069 4.4135,4.23728 3.0439,5.84474 -5.34499,3.79014 4.4135,8.47458 1.31585,0.63166 3.37323,-0.99874 4.41351,0 1.04026,0.99874 -1.04028,3.23855 0,4.23729 1.04026,0.99874 2.94232,0 4.41349,0 7.35583,0 14.71167,0 22.06749,0 1.47117,0 2.94234,0 4.41351,0 1.47116,0 3.37322,0.99874 4.4135,0 1.36661,-1.31206 -1.36663,-19.87438 0,-21.18644 1.04027,-0.99874 3.09764,0.63166 4.41349,0 3.72178,-1.7866 5.10521,-6.68798 8.82699,-8.47458 2.63171,-1.26331 6.74646,1.99748 8.827,0 1.04028,-0.99874 -1.04027,-3.23855 0,-4.23729 2.08055,-1.99747 6.1953,1.26332 8.82701,0 18.36793,-8.81729 -4.71819,0.29253 4.4135,-8.47457 1.04026,-0.99874 2.94232,0 4.41349,0 1.47117,0 2.94233,0 4.4135,0 15.83624,0 19.0687,0 26.481,0 1.0704,0 13.09856,-0.13627 13.24049,0 1.06204,1.01962 -1.06202,15.92953 0,16.94915 0.20004,0.19204 19.98655,0 22.06752,0 7.35582,0 14.71166,0 22.06749,0 2.94233,0 5.88466,0 8.827,0 1.47116,0 4.4135,-1.41243 4.4135,0 0,1.41243 -5.88467,0 -4.4135,0 2.94233,0 5.88467,0 8.827,0 1.47117,0 3.09764,-0.63166 4.4135,0 1.86089,0.8933 2.55261,3.34399 4.41349,4.23729 1.31586,0.63166 3.37323,-0.99874 4.4135,0 1.04028,0.99874 -1.04027,3.23855 0,4.23729 1.36664,1.31206 20.70096,-1.31207 22.06752,0 1.04033,0.99874 -1.04024,3.23855 0,4.23728 1.04033,0.99874 2.94237,0 4.41351,0 1.47124,0 2.94237,0 4.41351,0"
   id="path1401-3-1"
   inkscape:connector-curvature="0" /></svg>